<?xml version="1.0" encoding="utf-8"?>
<!-- Generator: Adobe Illustrator 24.0.1, SVG Export Plug-In . SVG Version: 6.00 Build 0)  -->
<svg version="1.1" id="Layer_1" xmlns="http://www.w3.org/2000/svg" xmlns:xlink="http://www.w3.org/1999/xlink" x="0px" y="0px"
	 viewBox="0 0 414.3 216.4" style="enable-background:new 0 0 414.3 216.4;" xml:space="preserve">
<style type="text/css">
	.st0{fill:#D3B594;stroke:#010101;stroke-width:0.23;stroke-miterlimit:10;}
	.st1{clip-path:url(#SVGID_2_);}
	.st2{fill:none;stroke:#000000;stroke-width:0.25;stroke-miterlimit:10;}
	.st3{clip-path:url(#SVGID_4_);}
	.st4{clip-path:url(#SVGID_6_);}
	.st5{clip-path:url(#SVGID_8_);}
	.st6{clip-path:url(#SVGID_10_);}
	.st7{clip-path:url(#SVGID_12_);}
	.st8{clip-path:url(#SVGID_14_);}
	.st9{clip-path:url(#SVGID_16_);}
	.st10{clip-path:url(#SVGID_18_);}
	.st11{clip-path:url(#SVGID_20_);}
	.st12{clip-path:url(#SVGID_22_);}
	.st13{clip-path:url(#SVGID_24_);}
	.st14{clip-path:url(#SVGID_26_);}
	.st15{clip-path:url(#SVGID_28_);}
	.st16{clip-path:url(#SVGID_30_);}
	.st17{clip-path:url(#SVGID_32_);}
	.st18{opacity:0.62;}
	.st19{opacity:0.36;fill:#52B2D3;enable-background:new    ;}
	.st20{opacity:0.36;fill:#337990;enable-background:new    ;}
	.st21{opacity:0.36;fill:#4598B5;enable-background:new    ;}
	.st22{fill:none;stroke:#9D9D9D;stroke-width:0.62;stroke-miterlimit:10;}
	.st23{fill:#9D9D9D;}
	.st24{fill:#3F403F;}
	.st25{fill:#3D3E3E;}
	.st26{fill:none;stroke:#356732;stroke-width:0.62;stroke-miterlimit:10;}
	.st27{fill:#356732;}
	.st28{fill:#010101;}
	.st29{fill:#D1D7B0;}
	.st30{fill:#FFFFFF;}
	.st31{fill:#E6E9D3;}
	.st32{fill:#0C9B49;}
	.st33{fill:#988C98;}
	.st34{fill:#5A4931;}
	.st35{fill:#B79F5F;}
	.st36{fill:#968385;}
	.st37{fill:#997953;}
	.st38{fill:#D3C1B7;}
	.st39{fill:#131114;}
	.st40{fill:#000222;stroke:#000000;stroke-width:2;stroke-miterlimit:10;}
	.st41{opacity:0.87;}
	.st42{fill:#59A14F;}
	.st43{fill:none;}
	.st44{font-family:'HelveticaNeue-Bold';}
	.st45{font-size:40px;}
	.st46{font-size:20px;}
</style>
<title>fish-care-site-home-pic</title>
<polygon id="ground" class="st0" points="146.8,137.3 268,120.2 310.2,143.2 189,160.6 "/>
<g id="borders">
	<g>
		<g>
			<g>
				<g>
					<g>
						<g>
							<g>
								<defs>
									<polygon id="SVGID_1_" points="268,46.1 267.9,120.2 146.5,137.3 146.6,63.2 									"/>
								</defs>
								<clipPath id="SVGID_2_">
									<use xlink:href="#SVGID_1_"  style="overflow:visible;"/>
								</clipPath>
								<g class="st1">
									<polygon class="st2" points="268,46.2 267.9,120.2 146.5,137.3 146.6,63.2 									"/>
								</g>
							</g>
						</g>
					</g>
				</g>
			</g>
		</g>
		<g>
			<g>
				<g>
					<g>
						<g>
							<g>
								<defs>
									<polygon id="SVGID_3_" points="310.5,69.3 310.4,143.3 189,160.4 189.1,86.3 									"/>
								</defs>
								<clipPath id="SVGID_4_">
									<use xlink:href="#SVGID_3_"  style="overflow:visible;"/>
								</clipPath>
								<g class="st3">
									<polygon class="st2" points="310.5,69.3 310.4,143.3 189,160.4 189.1,86.3 									"/>
								</g>
							</g>
						</g>
					</g>
				</g>
			</g>
		</g>
		<g>
			<g>
				<g>
					<g>
						<g>
							<g>
								<defs>
									<polygon id="SVGID_5_" points="310.5,69.3 310.4,143.3 267.9,120.2 268,46.1 									"/>
								</defs>
								<clipPath id="SVGID_6_">
									<use xlink:href="#SVGID_5_"  style="overflow:visible;"/>
								</clipPath>
								<g class="st4">
									<polygon class="st2" points="310.5,69.3 310.4,143.3 267.9,120.2 268,46.2 									"/>
								</g>
							</g>
						</g>
					</g>
				</g>
			</g>
		</g>
		<g>
			<g>
				<g>
					<g>
						<g>
							<g>
								<defs>
									<polygon id="SVGID_7_" points="310.4,143.3 189,160.4 146.5,137.3 267.9,120.2 									"/>
								</defs>
								<clipPath id="SVGID_8_">
									<use xlink:href="#SVGID_7_"  style="overflow:visible;"/>
								</clipPath>
								<g class="st5">
									<polygon class="st2" points="310.4,143.3 189,160.4 146.5,137.3 267.9,120.2 									"/>
								</g>
							</g>
						</g>
					</g>
				</g>
			</g>
		</g>
		<g>
			<g>
				<g>
					<g>
						<g>
							<g>
								<defs>
									<polygon id="SVGID_9_" points="189,160.4 146.5,137.3 146.6,63.2 189.1,86.3 									"/>
								</defs>
								<clipPath id="SVGID_10_">
									<use xlink:href="#SVGID_9_"  style="overflow:visible;"/>
								</clipPath>
								<g class="st6">
									<polygon class="st2" points="189,160.4 146.5,137.3 146.6,63.2 189.1,86.3 									"/>
								</g>
							</g>
						</g>
					</g>
				</g>
			</g>
		</g>
		<g>
			<g>
				<g>
					<g>
						<g>
							<g>
								<defs>
									<polygon id="SVGID_11_" points="189.1,86.3 146.6,63.2 268,46.1 310.5,69.3 									"/>
								</defs>
								<clipPath id="SVGID_12_">
									<use xlink:href="#SVGID_11_"  style="overflow:visible;"/>
								</clipPath>
								<g class="st7">
									<polygon class="st2" points="189.1,86.3 146.6,63.2 268,46.2 310.5,69.3 									"/>
								</g>
							</g>
						</g>
					</g>
				</g>
			</g>
		</g>
		<g>
			<g>
				<g>
					<g>
						<g>
							<g>
								<defs>
									<path id="SVGID_13_" d="M146.5,63.1L268.2,46l-0.2,74.3l-121.7,17.1L146.5,63.1z M267.9,120.2l0.1-74l-121.4,17l-0.1,74
										L267.9,120.2"/>
								</defs>
								<clipPath id="SVGID_14_">
									<use xlink:href="#SVGID_13_"  style="overflow:visible;"/>
								</clipPath>
								<g class="st8">
									<path class="st2" d="M146.5,63.1L268.2,46l-0.2,74.3l-121.7,17.1L146.5,63.1z M267.9,120.2l0.1-74l-121.4,17l-0.1,74
										L267.9,120.2"/>
								</g>
							</g>
						</g>
					</g>
				</g>
			</g>
		</g>
		<g>
			<g>
				<g>
					<g>
						<g>
							<g>
								<defs>
									<path id="SVGID_15_" d="M189,86.2l121.7-17.1l-0.1,74.3l-121.8,17.1L189,86.2z M310.4,143.3l0.1-74l-121.4,17l-0.1,74
										L310.4,143.3"/>
								</defs>
								<clipPath id="SVGID_16_">
									<use xlink:href="#SVGID_15_"  style="overflow:visible;"/>
								</clipPath>
								<g class="st9">
									<path class="st2" d="M189,86.2l121.7-17.1l-0.1,74.3l-121.8,17.1L189,86.2z M310.4,143.3l0.1-74l-121.4,17l-0.1,74
										L310.4,143.3"/>
								</g>
							</g>
						</g>
					</g>
				</g>
			</g>
		</g>
		<g>
			<g>
				<g>
					<g>
						<g>
							<g>
								<defs>
									<polygon id="SVGID_17_" points="189,86.2 146.5,63.1 268.2,46 310.7,69.1 									"/>
								</defs>
								<clipPath id="SVGID_18_">
									<use xlink:href="#SVGID_17_"  style="overflow:visible;"/>
								</clipPath>
								<g class="st10">
									<polygon class="st2" points="189,86.2 146.5,63.1 268.2,46 310.7,69.1 									"/>
								</g>
							</g>
						</g>
					</g>
				</g>
			</g>
		</g>
		<g>
			<g>
				<g>
					<g>
						<g>
							<g>
								<defs>
									<polygon id="SVGID_19_" points="310.7,69.1 310.5,143.4 268,120.3 268.2,46 									"/>
								</defs>
								<clipPath id="SVGID_20_">
									<use xlink:href="#SVGID_19_"  style="overflow:visible;"/>
								</clipPath>
								<g class="st11">
									<polygon class="st2" points="310.7,69.1 310.5,143.4 268,120.3 268.2,46 									"/>
								</g>
							</g>
						</g>
					</g>
				</g>
			</g>
		</g>
		<g>
			<g>
				<g>
					<g>
						<g>
							<g>
								<defs>
									<polygon id="SVGID_21_" points="310.5,143.4 188.8,160.6 146.3,137.4 268,120.3 									"/>
								</defs>
								<clipPath id="SVGID_22_">
									<use xlink:href="#SVGID_21_"  style="overflow:visible;"/>
								</clipPath>
								<g class="st12">
									<polygon class="st2" points="310.5,143.4 188.8,160.6 146.3,137.4 268,120.3 									"/>
								</g>
							</g>
						</g>
					</g>
				</g>
			</g>
		</g>
		<g>
			<g>
				<g>
					<g>
						<g>
							<g>
								<defs>
									<polygon id="SVGID_23_" points="188.8,160.6 146.3,137.4 146.5,63.1 189,86.2 									"/>
								</defs>
								<clipPath id="SVGID_24_">
									<use xlink:href="#SVGID_23_"  style="overflow:visible;"/>
								</clipPath>
								<g class="st13">
									<polygon class="st2" points="188.8,160.6 146.3,137.4 146.5,63.1 189,86.2 									"/>
								</g>
							</g>
						</g>
					</g>
				</g>
			</g>
		</g>
		<g>
			<g>
				<g>
					<g>
						<g>
							<g>
								<defs>
									<polygon id="SVGID_25_" points="310.4,143.3 267.9,120.2 268,46.1 310.5,69.3 									"/>
								</defs>
								<clipPath id="SVGID_26_">
									<use xlink:href="#SVGID_25_"  style="overflow:visible;"/>
								</clipPath>
								<g class="st14">
									<polygon class="st2" points="310.4,143.3 267.9,120.2 268,46.2 310.5,69.3 									"/>
								</g>
							</g>
						</g>
					</g>
				</g>
			</g>
		</g>
		<g>
			<g>
				<g>
					<g>
						<g>
							<g>
								<defs>
									<polygon id="SVGID_27_" points="310.5,69.3 189.1,86.3 146.6,63.2 268,46.1 									"/>
								</defs>
								<clipPath id="SVGID_28_">
									<use xlink:href="#SVGID_27_"  style="overflow:visible;"/>
								</clipPath>
								<g class="st15">
									<polygon class="st2" points="310.5,69.3 189.1,86.3 146.6,63.2 268,46.2 									"/>
								</g>
							</g>
						</g>
					</g>
				</g>
			</g>
		</g>
		<g>
			<g>
				<g>
					<g>
						<g>
							<g>
								<defs>
									<polygon id="SVGID_29_" points="189.1,86.3 189,160.4 146.5,137.3 146.6,63.2 									"/>
								</defs>
								<clipPath id="SVGID_30_">
									<use xlink:href="#SVGID_29_"  style="overflow:visible;"/>
								</clipPath>
								<g class="st16">
									<polygon class="st2" points="189.1,86.3 189,160.4 146.5,137.3 146.6,63.2 									"/>
								</g>
							</g>
						</g>
					</g>
				</g>
			</g>
		</g>
		<g>
			<g>
				<g>
					<g>
						<g>
							<g>
								<defs>
									<polygon id="SVGID_31_" points="189,160.4 146.5,137.3 267.9,120.2 310.4,143.3 									"/>
								</defs>
								<clipPath id="SVGID_32_">
									<use xlink:href="#SVGID_31_"  style="overflow:visible;"/>
								</clipPath>
								<g class="st17">
									<polygon class="st2" points="189,160.4 146.5,137.3 267.9,120.2 310.4,143.3 									"/>
								</g>
							</g>
						</g>
					</g>
				</g>
			</g>
		</g>
	</g>
</g>
<g id="water" class="st18">
	<g>
		<polygon class="st19" points="310.7,71.2 310.5,143.5 188.8,160.6 189,88.3 		"/>
		<polygon class="st20" points="188.8,160.6 146.3,137.5 146.5,65.2 189,88.3 		"/>
		<polygon class="st21" points="189,88.3 146.5,65.2 268.2,48.1 310.7,71.2 		"/>
	</g>
</g>
<g id="plant3">
	<path class="st22" d="M272.2,136.7c0,0-18.8-16.4-22.9-46.3"/>
	
		<ellipse transform="matrix(6.980607e-03 -1 1 6.980607e-03 162.1162 335.6459)" class="st23" cx="250.1" cy="86.2" rx="6.5" ry="2"/>
	<path class="st23" d="M250.1,95.2c0,0,3.9-6.7,10.8-8.2C262.5,86.7,254.5,98.1,250.1,95.2z"/>
	<path class="st23" d="M250,94.5c0,0-8.1-7.9-11.2-5.4c-1.1,0.9,11.6,10.6,11.3,6.1S250,94.5,250,94.5z"/>
	<path class="st23" d="M251,99.4c0,0,6.4-7.2,12.5-5.1C265,94.8,254.7,102.9,251,99.4z"/>
	<path class="st23" d="M252.9,104.9c0,0,4.8-7.6,11.5-6.6c1.3,0.2-2.4,4.2-4.7,5.3S253.8,106.7,252.9,104.9z"/>
	<path class="st23" d="M252.4,105.1c0,0-7.2-6.5-12.8-2.4c-1.1,0.8,4.5,3.5,8.3,3.6S252.1,106.2,252.4,105.1z"/>
	<path class="st23" d="M255.1,110.7c0,0,0.9-4,8.4-6.9c2.1-0.8,4.6-0.7,1.1,3.2S254.9,112.2,255.1,110.7z"/>
	<path class="st23" d="M254.6,110.2c0,0-8.5-3.9-12.6-0.8c-1.3,1,3.2,2.7,3.2,2.7s8.5,1.6,9.6-0.4S254.6,110.2,254.6,110.2z"/>
	<path class="st23" d="M251.3,98.3"/>
	<path class="st23" d="M251,99.4c0,0-1.8-3.9-12.1-3.5c-2.8,0.1,2.2,3,2.2,3s5.5,2.8,8,1.9C251.6,99.9,251,99.4,251,99.4z"/>
	<path class="st23" d="M258,117.5c0,0,0.3-6.4,7.6-10.2c2.1-1.1,0.3,3.6-1.2,5.4S261.3,117.4,258,117.5z"/>
	<path class="st23" d="M257.6,116.9c0,0-5.8-3-9.6-2.1s-5.1,1.6-1.5,3.1c2.7,1.1,5.7,1.6,8.6,1.3c0.8-0.2,2.7-0.3,3-1.6
		S257.6,116.9,257.6,116.9z"/>
	<path class="st23" d="M261.6,123.7c0,0,0.6-7.4,4.8-10.5s0.7,5.1,0.7,5.1S263.5,126,261.6,123.7z"/>
	<path class="st23" d="M261.2,123.2c0,0-6.6-1.6-8.7-1.6s-7.3,1.2-1.4,3.2s10.3,0.3,10.7,0.1S261.2,123.2,261.2,123.2z"/>
	<path class="st23" d="M265.8,129.7c0,0,0.5-6.2,2-9s3.6-4.9,3.3,0.5s-3.3,8.8-4.4,9S265.8,129.7,265.8,129.7z"/>
	<path class="st23" d="M265.8,129.7c0,0-8.2-2.2-10.4-1.8s-4.3,2,0.7,3.5c5,1.5,9.8,0.6,10.2-1.1S265.8,129.7,265.8,129.7z"/>
</g>
<g id="lid">
	<g>
		<polygon class="st24" points="268.2,54.1 146.2,69.9 146.3,60.9 268.4,45.1 		"/>
		<polygon class="st25" points="311,74.9 268.2,54.1 268.4,45.1 311.2,65.9 		"/>
		<polygon class="st24" points="189,90.7 189.1,81.7 311.2,65.9 311,74.9 		"/>
		<polygon class="st25" points="146.2,69.9 146.3,60.9 189.1,81.7 189,90.7 		"/>
	</g>
</g>
<g id="plant">
	<path class="st26" d="M284.7,138.6c0,0,13.9-18.1,12.1-45.7"/>
	<ellipse transform="matrix(0.9787 -0.2052 0.2052 0.9787 -12.0608 62.498)" class="st27" cx="295.3" cy="89.4" rx="1.8" ry="6"/>
	<path class="st27" d="M297,97.5c0,0-4.7-5.3-11.1-5.4C284.4,92.1,293.6,100.8,297,97.5z"/>
	<path class="st27" d="M297,96.8c0,0,5.9-8.6,9-6.9c1.1,0.6-8.5,11.6-9,7.6S297,96.8,297,96.8z"/>
	<path class="st27" d="M296.9,101.4c0,0-7-5.3-12.2-2.3C283.6,99.8,294.2,105.2,296.9,101.4z"/>
	<path class="st27" d="M296.2,106.6c0,0-5.7-5.9-11.5-3.9c-1.1,0.4,2.9,3.3,5.2,3.9C292.2,107.2,295.8,108.5,296.2,106.6z"/>
	<path class="st27" d="M296.7,106.7c0,0,5.3-7.1,11.1-4.4c1.1,0.5-3.4,4-6.8,4.7C297.6,107.7,297.2,107.7,296.7,106.7z"/>
	<path class="st27" d="M295.3,112.3c0,0-1.5-3.4-8.8-4.7c-2-0.4-4.3,0.2-0.4,3.1S295.7,113.5,295.3,112.3z"/>
	<path class="st27" d="M295.7,111.7c0,0,6.9-5,11.1-3c1.4,0.6-2.4,3-2.4,3s-7.3,3-8.7,1.4S295.7,111.7,295.7,111.7z"/>
	<path class="st28" d="M296.5,100.5"/>
	<path class="st27" d="M296.9,101.4c0,0,0.9-3.9,10.2-5.4c2.5-0.4-1.4,3.1-1.4,3.1s-4.4,3.5-6.9,3.1S296.9,101.4,296.9,101.4z"/>
	<path class="st27" d="M294,118.9c0,0-1.4-5.7-8.7-7.7c-2.1-0.6,0.4,3.3,2.1,4.6S291,119.4,294,118.9z"/>
	<path class="st27" d="M294.2,118.2c0,0,4.6-3.7,8.2-3.7s4.8,0.5,2,2.5c-2.2,1.5-4.8,2.4-7.5,2.8c-0.8,0-2.5,0.2-2.9-0.9
		S294.2,118.2,294.2,118.2z"/>
	<path class="st27" d="M291.9,125.1c0,0-1.9-6.5-6.2-8.6s0.3,4.7,0.3,4.7S290.5,127.5,291.9,125.1z"/>
	<path class="st27" d="M292,124.6c0,0,5.6-2.7,7.5-3s6.8-0.3,1.8,2.6s-9.2,2.2-9.6,2S292,124.6,292,124.6z"/>
	<path class="st27" d="M289.2,131.2c0,0-1.6-5.4-3.5-7.7s-4.1-3.7-2.8,1.1s4.5,7.3,5.6,7.3S289.2,131.2,289.2,131.2z"/>
	<path class="st27" d="M289.2,131.2c0,0,6.9-3.5,9-3.5s4.2,1,0,3.3s-8.6,2.4-9.3,0.9S289.2,131.2,289.2,131.2z"/>
</g>
<path class="st29" d="M227.4,141.9"/>
<circle class="st30" cx="210.4" cy="138.7" r="0.2"/>
<path class="st31" d="M237,138.2"/>
<path class="st32" d="M273.3,138.4l-0.2,0.1l0,0L273.3,138.4L273.3,138.4"/>
<path class="st33" d="M256.2,126.9c-0.1,0.1-0.2,0.2-0.4,0.2c0.2,0,0.2,0,0.2-0.1C256.2,127,256.2,127,256.2,126.9 M262.5,131.3
	l-3.6-2.1l-1.8-2.2L262.5,131.3 M257.3,126.5l-0.1,0.2c-0.1,0.3-0.3,0.6-0.5,0.8c-0.2,0.2-0.4,0.3-0.7,0.4l0,0c-0.2,0-0.4,0-0.6,0
	h-0.9c-0.5,0-0.8,0.1-0.8,0s0.5-0.3,0.7-0.4l0.5-0.2l0.2-0.1c-0.2,0-0.6,0-1.1,0.1c-0.8,0-1.2,0.1-1.5,0.1l-0.4,0.1
	c-0.1,0-0.3,0.1-0.4,0.2l0.3,0.2c0.3,0.2,0.6,0.4,0.8,0.6c0.5,0.4,0.5,0.4,0.7,0.5c0.4,0.3,0.5,0.2,1.1,0.6c0.2,0.1,0.4,0.3,0.8,0.5
	c0.7,0.5,0.6,0.4,0.8,0.6c0.5,0.3,1.1,0.5,1.7,0.6l0.9,0.4c0.3,0.2,0.7,0.3,1.1,0.4h0.2c0.5-0.1,0.9-0.3,1.4-0.5
	c1.1-0.5,1.2-0.6,1.3-0.8c0.1-0.2,0-0.5,0.1-1c0-0.3,0.2-0.6,0.4-0.8l-2.7-0.8L257.3,126.5 M265.2,119.9L265.2,119.9l-4.2,1.3
	l-3.5,0.6L265.2,119.9 M264.7,117.4l-4.5,2.5l-3,0.8l0.2,0.7c0.1,0.4,0.2,0.9,0.3,1.3l7.6-0.4l-5.4,0.7l-2.2-0.3l0,0
	c0,0.5,0,0.6,0,1.5v0.3l7.3,0.5l-5.7,0.1l-1.6-0.6v0.3c0,0.4,0,0.7-0.1,1.1l6.6,1.8l-3.8-0.7l-2.8-1.1l0,0c0,0.2-0.1,0.4-0.2,0.5
	l6,2.6c0.2-0.3,0.4-0.5,0.5-0.8c0.3-0.8,0.5-1.6,0.7-2.4c0.2-0.5,0.3-0.8,0.4-1.3c0.1-0.4,0.2-0.8,0.2-1.2c0.1-0.5,0.1-1,0.1-1.5
	c0-0.7,0-1.3-0.1-2c-0.1-0.6-0.2-1-0.2-1.4S264.8,117.8,264.7,117.4 M263.8,115.4L263.8,115.4l-3.4,2.8l-3.5,1.8L263.8,115.4
	 M262.4,112.8c-1.7,2.3-3.6,4.5-5.7,6.5c0.1,0.3,0.2,0.6,0.2,0.6s0.1,0.4,0.2,0.9l7.5-3.4c0-0.1,0-0.2-0.1-0.2
	c-0.1-0.4-0.2-0.7-0.4-1c-0.2-0.3-0.4-0.3-0.5-0.6s0.1-0.4,0.1-0.7c-0.1-0.2-0.1-0.4-0.3-0.6c-0.2-0.2-0.3-0.4-0.5-0.6
	C262.8,113.4,262.6,113.1,262.4,112.8 M260.9,111.3L260.9,111.3l-3.3,4.6l-2,2.3L260.9,111.3 M259.4,111.1c-0.5,0.1-1,0.3-1.4,0.7
	c-0.3,0.2-0.2,0.2-0.8,0.9s-0.6,0.6-1.1,1.1c-0.6,0.7-0.5,0.8-1,1.2s-0.6,0.4-1.1,1s-0.4,0.5-0.9,1s-0.5,0.4-1,0.9s-0.5,0.5-0.8,0.8
	s-0.8,0.5-0.8,0.6s0,0,0.1,0.1l0,0c0.2,0,0.3-0.1,0.5-0.1c0.3-0.1,0.9-0.4,0.9-0.4c0.2,0.1,0.5,0.2,0.7,0.1l0,0
	c0.4-0.1,0.5-0.3,0.7-0.4h0.1c0.3,0,0.3,0.3,0.7,0.4h0.2c0.1,0,0.2,0,0.2-0.1c0.1,0,0.2-0.1,0.2-0.1h0.2c-0.3-0.4-0.8-0.6-1.3-0.6
	h0.2c0.2,0,0.3,0,0.5,0c0.1,0,0.2,0,0.5,0l0.5,0.1h0.1c0.3,0.1,0.7,0.6,0.9,1l5.7-6.5l-0.1-0.1c0-0.2-0.1-0.4-0.2-0.6
	s-0.3-0.4-0.5-0.5c-0.3-0.2-0.6-0.3-1-0.3c-0.3-0.1-0.5-0.1-0.8-0.1L259.4,111.1"/>
<path class="st34" d="M254.1,118.1h-0.2c0.5,0,1,0.3,1.3,0.6l0,0c0.3,0.1,0.5,0.3,0.7,0.5c0.2,0.3,0.4,0.6,0.5,1
	c0.2,0.7,0.5,1.4,0.6,2.2c0,0.6,0,1.2,0,1.8c0,0.1,0,0.6-0.1,1.2c0,0.3-0.1,0.6-0.2,0.8c-0.1,0.3-0.3,0.5-0.5,0.6
	c0,0.1-0.1,0.1-0.1,0.2c0,0-0.1,0-0.2,0.1l0,0c-0.1,0.1-0.2,0.1-0.4,0.1h-0.2l-0.2,0.1l-0.5,0.2c-0.3,0.1-0.7,0.3-0.7,0.4
	s0.2,0,0.8,0h0.9c0.2,0,0.4,0,0.6,0l0,0c0.3-0.1,0.5-0.2,0.7-0.4c0.2-0.2,0.4-0.5,0.5-0.8l0.1-0.2l0,0c0.1-0.2,0.1-0.3,0.2-0.5l0,0
	c0.1-0.4,0.1-0.7,0.1-1.1v-0.3l0,0v-0.2c0-0.9,0.1-1,0-1.5l0,0c-0.1-0.4-0.2-0.9-0.3-1.3l-0.2-0.7l0,0c-0.1-0.5-0.2-0.8-0.2-0.9
	s-0.1-0.3-0.2-0.6l0,0c-0.2-0.4-0.5-1-0.9-1h-0.1l-0.5-0.1c-0.2,0-0.4,0-0.5,0C254.3,118.1,254.2,118.1,254.1,118.1"/>
<path class="st35" d="M207.9,129c-0.8,0.1-1.6-0.4-1.8-1.2c-0.1-0.8,0.4-1.6,1.2-1.8c0.8-0.1,1.6,0.4,1.8,1.2
	C209.2,128.1,208.7,128.8,207.9,129 M220.2,120.5l-0.7,0.1c-1.2,0.3-1.1,0.4-2.3,0.7l-0.6,0.1l-0.5,0.1l-0.7,0.1l-0.6,0.1
	c-0.7,0.1-1.3,0.3-2,0.5c-1.1,0.3-1,0.4-2,0.7c-0.6,0.2-1.4,0.3-2.9,0.6c-0.1,0-0.5,0.1-1.2,0.3c-0.3,0.1-0.7,0.1-1,0.3
	c-0.3,0.1-0.5,0.3-0.7,0.4l-0.4,0.1h-0.2c0,0.1-0.3,0.2-0.5,0.2s-0.5,0.1-0.6,0.2s0,0.2,0.2,0.6s0.2,0.7,0.2,0.7l-0.7,0.3l0.5,1.1
	l0.6,0.6c0.3,0.2,0.7,0.5,1,0.7c0.7,0.5,0.6,0.5,1.1,0.8c0.3,0.2,0.6,0.4,1.1,0.7c0.8,0.5,1.2,0.8,1.5,0.9c0.3,0.1,0.2,0.1,1.4,0.5
	c0.7,0.3,0.8,0.3,1.1,0.4c0.4,0.2,0.9,0.3,1.3,0.3c0.1,0,0.2,0,0.3,0h0.1h0.1c0.1,0,0.3,0,0.4,0c0.3,0.1,0.3,0.3,0.6,0.6
	s0.3,0.3,1.3,0.7c0.6,0.3,1.2,0.5,1.9,0.6c0.6,0.1,1.2,0.2,1.8,0.2c0.3,0,0.6,0,0.9,0c-0.2,0-0.3-0.1-0.5-0.2
	c-0.5-0.2-0.9-0.4-1.3-0.7c-1-0.6-1-0.5-1.4-0.7c-0.6-0.4-1-1.1-1.7-2.6c-0.6-1.2-0.6-1.5-0.6-1.7c0.2-0.6,0.6-1.1,1.1-1.4
	c0.3-0.1,0.7-0.3,1-0.3c0.3-0.1,0.6-0.1,0.9-0.2c0.5-0.1,0.9-0.1,0.9-0.1c0.2,0,0.3,0,0.5-0.1h0.2c0.2-0.1,0.5-0.1,0.7-0.2
	s0.4-0.1,0.6-0.1l0.6-0.1c0.6-0.1,1.1-0.1,1.7,0c0.8,0.1,1.6,0.3,2.3,0.6c0.7,0.3,1.3,0.7,1.9,1.3c0.4,0.3,0.7,0.7,1,1.2
	c0.2,0.7,0.2,1.4,0,2.1c-0.1,0.4-0.2,0.8-0.5,1.2c-0.4,0.3-0.8,0.6-1.3,0.8c-0.4,0.2-0.8,0.4-1.4,0.6c-0.6,0.3-1.2,0.5-1.9,0.6l0,0
	c-0.2,0-0.5,0.1-0.8,0.1c0.4,0.1,0.9,0.1,1.3,0.1c0.9,0,1.8-0.2,2.6-0.3h0.3l0.4-0.1h0.3l0.4-0.1c1-0.1,1.2-0.1,1.6-0.2l0.2-0.2
	c0.8-0.2,0.7-0.4,1.6-0.6l0.4-0.1l0.4-0.1h0.3c0.2,0,0.4-0.1,0.5-0.2c0.4-0.2,0.8-0.4,1.1-0.7c0.2-0.2,0.2-0.2,0.8-0.7
	s0.7-0.7,0.9-0.8c0,0,0,0-0.1,0c0-0.2,0.9-0.5,1.5-1.1l0.3-0.3c0.2-0.2,0.5-0.3,0.7-0.4c0.3-0.1,0.7-0.2,1-0.3h0.1
	c0.3,0,0.6,0,0.9,0c0.3,0,0.7,0,1.2-0.1l0,0c0.5-0.1,1.1-0.2,1.6-0.1c0.2,0,0.4,0,0.6-0.1h0.1c0.5-0.1,0.8-0.2,1.1-0.2l0.3-0.1
	c0.4-0.1,1-0.1,1.9-0.2c1.4-0.1,2-0.2,2.3-0.1c0.7,0.2,1.4,0.2,2.2,0.2l0.3-0.1c0.1,0,0.3-0.1,0.4-0.2c0.1-0.1,0.3-0.1,0.4-0.2
	l0.4-0.1c0.3,0,0.7-0.1,1.5-0.1c0.5,0,0.9-0.1,1.1-0.1h0.2c0.1,0,0.3-0.1,0.4-0.1l0,0c0.1-0.1,0.3-0.1,0.4-0.2
	c0.2-0.2,0.4-0.4,0.5-0.6c0.1-0.3,0.2-0.5,0.2-0.8c0.1-0.6,0.1-1.1,0.1-1.2c0-0.6,0-1.2,0-1.8c-0.2-0.7-0.4-1.5-0.6-2.2
	c-0.1-0.3-0.2-0.7-0.5-1c-0.2-0.3-0.4-0.5-0.7-0.5h0.1c-0.1,0-0.2,0-0.2,0.1c-0.1,0-0.2,0.1-0.2,0.1h-0.2c-0.4-0.1-0.4-0.4-0.7-0.4
	h-0.1c-0.3,0-0.4,0.3-0.7,0.4l0,0c-0.2,0-0.5,0-0.7-0.1c0,0-0.6,0.3-0.9,0.4c-0.2,0.1-0.3,0.1-0.5,0.1l0,0c-0.2,0-0.5,0.1-0.8,0.1
	c-0.7,0.1-1.4,0.1-2.1,0c-0.5-0.1-0.4-0.1-0.8-0.1c-0.6,0-1.1,0-1.7,0.1h-0.5l-0.1,0.1l-0.2,0.1c-0.1,0-0.1,0.1-0.2,0.1
	c-0.1,0-0.2,0-0.3,0c-0.4,0-0.5,0.1-1.8,0.1c-0.1,0-0.5,0-1.1,0c-1.1-0.1-2.2-0.2-3.2-0.5c-1.6-0.3-2.2-0.6-2.8-0.6
	c-0.3,0-0.7-0.1-1-0.2l-0.2-0.1l0.4-0.2c-0.3,0-0.5,0-0.8,0h-0.2c-0.3,0-0.5,0.1-0.8,0.2c-0.2,0-0.3,0.1-0.6,0.1l-1.3,0.2l-2.8,0.4
	c-0.9,0.1-1.6,0.2-2.5,0.4h-0.1c-1.4,0.2-1.3,0.3-2.5,0.5C221.2,120.5,220.8,120.5,220.2,120.5"/>
<path class="st36" d="M239.1,116.8l-0.3,0.1c-0.3,0.1-0.7,0.2-1,0.4c-0.1,0.1-0.2,0.1-1.5,0.5c-0.6,0.2-0.7,0.2-0.9,0.3
	c-0.3,0.1-0.6,0.2-0.9,0.4h-0.1H234l0.2,0.1c0.3,0.1,0.7,0.2,1,0.2c0.6,0.1,1.2,0.3,2.8,0.6c1.1,0.2,2.1,0.4,3.2,0.5
	c0.5,0,0.9,0,1.1,0c1.3,0,1.3-0.2,1.8-0.1c0.1,0,0.2,0,0.3,0s0.1,0,0.2-0.1l0.2-0.1l0.1-0.1l0.3-0.2c0.1-0.2,0-0.4-0.1-0.8
	c-0.1-0.2-0.2-0.4-0.3-0.6c-0.3-0.2-0.5-0.3-0.8-0.3c-0.5-0.1-0.4-0.1-0.7-0.1c-0.4-0.1-0.7-0.3-1.1-0.4c-0.2-0.1-0.5-0.2-0.8-0.3
	c-0.2-0.1-0.5-0.1-0.8-0.2c-0.3,0-0.5,0-0.8,0.1L239.1,116.8"/>
<path class="st37" d="M220.6,126.5c-0.2,0-0.4,0.1-0.6,0.1c-0.2,0.1-0.5,0.2-0.7,0.2h-0.2c-0.2,0-0.3,0.1-0.5,0.1c0,0-0.4,0-0.9,0.1
	c-0.3,0-0.6,0.1-0.9,0.2c-0.4,0.1-0.7,0.2-1,0.3c-0.5,0.3-0.9,0.8-1.1,1.4c0,0.2,0,0.5,0.6,1.7c0.7,1.4,1,2.1,1.7,2.6
	c0.4,0.3,0.4,0.2,1.4,0.7c0.4,0.3,0.9,0.5,1.3,0.7c0.2,0.1,0.3,0.1,0.5,0.2c0.2,0.1,0.4,0.1,0.6,0.1c0.4,0,0.7,0,1.1,0h0.2
	c0.4,0,0.6-0.1,0.8-0.1l0,0c0.6-0.1,1.3-0.3,1.9-0.6c0.6-0.2,1.1-0.5,1.4-0.6c0.5-0.2,0.9-0.5,1.3-0.8c0.3-0.4,0.4-0.8,0.5-1.2
	c0.2-0.7,0.2-1.4,0-2.1c-0.2-0.5-0.5-0.9-1-1.2c-0.5-0.5-1.2-0.9-1.9-1.3c-0.7-0.3-1.5-0.5-2.3-0.6c-0.6-0.1-1.1-0.1-1.7,0
	L220.6,126.5"/>
<path class="st38" d="M207.7,128.3c-0.4,0.1-0.8-0.1-0.9-0.6c-0.1-0.4,0.1-0.8,0.6-0.9c0.4-0.1,0.8,0.1,0.9,0.6l0,0
	C208.3,127.9,208.1,128.3,207.7,128.3L207.7,128.3 M207.3,126c-0.8,0.1-1.4,0.9-1.2,1.8c0.1,0.8,0.9,1.4,1.8,1.2
	c0.8-0.1,1.4-0.9,1.2-1.8l0,0C208.9,126.4,208.2,125.9,207.3,126"/>
<path class="st39" d="M207.4,126.9c-0.4,0-0.7,0.4-0.7,0.8s0.4,0.7,0.8,0.7c0.4,0,0.7-0.4,0.7-0.8l0,0
	C208.2,127.1,207.8,126.8,207.4,126.9L207.4,126.9"/>
<path class="st36" d="M238.8,128.8c-0.3,0.1-0.7,0.2-1,0.3s-0.5,0.3-0.7,0.4l-0.3,0.3c-0.7,0.7-1.6,1-1.5,1.1c0,0,0,0,0.1,0
	s0.2,0,0.5,0.1c0.4,0.1,0.5,0.2,1,0.3l0.8,0.1c1,0.2,1,0.2,1.1,0.2c0.6,0,1.2,0,1.8,0s0.5,0.1,1.4,0.1c0.6,0,1.1,0,1.7,0
	c0.1,0,0.1,0,0.2,0c0.2,0,0.4-0.1,0.6-0.2c0.1-0.1,0.2-0.2,0.3-0.3c0-0.2,0-0.4-0.1-0.5c-0.1-0.3-0.1-0.3-0.3-0.6
	c0-0.1-0.1-0.3-0.2-0.4c-0.1-0.2-0.3-0.3-0.6-0.5s-0.3-0.5-0.5-0.6c-0.1,0-0.1-0.1-0.2-0.1h-0.1c-0.6,0-1.1,0-1.6,0.1l0,0
	c-0.5,0-0.9,0.1-1.2,0.1s-0.6,0-0.9,0L238.8,128.8"/>
<path class="st28" d="M262.3,112.8L262.3,112.8l-5.7,6.5l0,0C258.7,117.3,260.6,115.1,262.3,112.8L262.3,112.8"/>
<polyline class="st28" points="264.7,117.3 264.6,117.4 257.1,120.7 257.1,120.7 257.1,120.7 260.1,119.9 264.6,117.4 264.7,117.3 
	"/>
<polyline class="st28" points="257.6,122.7 257.6,122.7 259.8,123.1 265.2,122.4 257.6,122.7 "/>
<polyline class="st28" points="257.5,124.5 257.5,124.5 259.1,125.1 264.8,125 257.5,124.5 257.5,124.5 "/>
<polyline class="st28" points="257.5,125.9 257.5,125.9 260.3,127 264.1,127.7 257.5,125.9 "/>
<polyline class="st28" points="263.7,115.3 256.8,119.8 260.3,118.1 263.7,115.3 "/>
<polyline class="st28" points="260.8,111.3 255.6,118.2 257.5,115.9 260.8,111.3 "/>
<polyline class="st28" points="265.1,119.8 257.4,121.7 260.9,121.2 265.1,119.8 "/>
<path class="st40" d="M116.2,147.8L116.2,147.8c-13.5,0-24.5-11-24.5-24.5v-1.6c0-13.5,11-24.5,24.5-24.5l0,0c2.7,0,5,2.2,5,5v40.7
	C121.2,145.6,119,147.8,116.2,147.8z"/>
<g class="st41">
	
		<image style="overflow:visible;enable-background:new    ;" width="124" height="152" xlink:href="4B906C7A8D2CB95F.png"  transform="matrix(0.9928 0 0 0.9928 76.7447 47.5816)">
	</image>
	<g>
		<polygon class="st42" points="120.4,101.7 153.9,91.4 155.2,154.2 120.4,142.4 		"/>
	</g>
</g>
<rect x="154.5" y="8.1" class="st43" width="126" height="36.4"/>
<text transform="matrix(1 0 0 1 154.489 36.6235)" class="st44 st45">G</text>
<text transform="matrix(1 0 0 1 184.889 36.6235)" class="st42 st44 st45">L</text>
<text transform="matrix(1 0 0 1 208.589 36.6235)" class="st44 st45">oW</text>
<rect x="102.7" y="176.2" class="st43" width="244.9" height="36.4"/>
<text transform="matrix(1 0 0 1 102.7003 190.4959)" class="st44 st46">Guppy </text>
<text transform="matrix(1 0 0 1 170.1003 190.4959)" class="st42 st44 st46">Learning  </text>
<text transform="matrix(1 0 0 1 262.6552 190.4959)" class="st44 st46">  over Wifi</text>
</svg>
