<?xml version="1.0" encoding="utf-8"?>
<!-- Generator: Adobe Illustrator 24.0.1, SVG Export Plug-In . SVG Version: 6.00 Build 0)  -->
<svg version="1.1" id="Layer_1" xmlns="http://www.w3.org/2000/svg" xmlns:xlink="http://www.w3.org/1999/xlink" x="0px" y="0px"
	 viewBox="0 0 414.3 117.3" style="enable-background:new 0 0 414.3 117.3;" xml:space="preserve">
<style type="text/css">
	.st0{fill:#D3B594;stroke:#010101;stroke-width:0.23;stroke-miterlimit:10;}
	.st1{clip-path:url(#SVGID_2_);}
	.st2{fill:none;stroke:#000000;stroke-width:0.25;stroke-miterlimit:10;}
	.st3{clip-path:url(#SVGID_4_);}
	.st4{clip-path:url(#SVGID_6_);}
	.st5{clip-path:url(#SVGID_8_);}
	.st6{clip-path:url(#SVGID_10_);}
	.st7{clip-path:url(#SVGID_12_);}
	.st8{clip-path:url(#SVGID_14_);}
	.st9{clip-path:url(#SVGID_16_);}
	.st10{clip-path:url(#SVGID_18_);}
	.st11{clip-path:url(#SVGID_20_);}
	.st12{clip-path:url(#SVGID_22_);}
	.st13{clip-path:url(#SVGID_24_);}
	.st14{clip-path:url(#SVGID_26_);}
	.st15{clip-path:url(#SVGID_28_);}
	.st16{clip-path:url(#SVGID_30_);}
	.st17{clip-path:url(#SVGID_32_);}
	.st18{opacity:0.62;}
	.st19{opacity:0.36;fill:#52B2D3;enable-background:new    ;}
	.st20{opacity:0.36;fill:#337990;enable-background:new    ;}
	.st21{opacity:0.36;fill:#4598B5;enable-background:new    ;}
	.st22{fill:none;stroke:#9D9D9D;stroke-width:0.62;stroke-miterlimit:10;}
	.st23{fill:#9D9D9D;}
	.st24{fill:#3F403F;}
	.st25{fill:#3D3E3E;}
	.st26{fill:none;stroke:#356732;stroke-width:0.62;stroke-miterlimit:10;}
	.st27{fill:#356732;}
	.st28{fill:#010101;}
	.st29{fill:#D1D7B0;}
	.st30{fill:#FFFFFF;}
	.st31{fill:#E6E9D3;}
	.st32{fill:#0C9B49;}
	.st33{fill:#988C98;}
	.st34{fill:#5A4931;}
	.st35{fill:#B79F5F;}
	.st36{fill:#968385;}
	.st37{fill:#997953;}
	.st38{fill:#D3C1B7;}
	.st39{fill:#131114;}
	.st40{fill:#000222;stroke:#000000;stroke-width:2;stroke-miterlimit:10;}
	.st41{opacity:0.87;}
	.st42{fill:#59A14F;}
</style>
<title>fish-care-site-home-pic</title>
<polygon id="ground" class="st0" points="146.8,93.8 268,76.7 310.2,99.7 189,117.1 "/>
<g id="borders">
	<g>
		<g>
			<g>
				<defs>
					<polygon id="SVGID_1_" points="268,2.6 267.9,76.7 146.5,93.8 146.6,19.7 					"/>
				</defs>
				<clipPath id="SVGID_2_">
					<use xlink:href="#SVGID_1_"  style="overflow:visible;"/>
				</clipPath>
				<g class="st1">
					<polygon class="st2" points="268,2.7 267.9,76.7 146.5,93.8 146.6,19.7 					"/>
				</g>
			</g>
		</g>
		<g>
			<g>
				<defs>
					<polygon id="SVGID_3_" points="310.5,25.8 310.4,99.8 189,116.9 189.1,42.8 					"/>
				</defs>
				<clipPath id="SVGID_4_">
					<use xlink:href="#SVGID_3_"  style="overflow:visible;"/>
				</clipPath>
				<g class="st3">
					<polygon class="st2" points="310.5,25.8 310.4,99.8 189,116.9 189.1,42.8 					"/>
				</g>
			</g>
		</g>
		<g>
			<g>
				<defs>
					<polygon id="SVGID_5_" points="310.5,25.8 310.4,99.8 267.9,76.7 268,2.6 					"/>
				</defs>
				<clipPath id="SVGID_6_">
					<use xlink:href="#SVGID_5_"  style="overflow:visible;"/>
				</clipPath>
				<g class="st4">
					<polygon class="st2" points="310.5,25.8 310.4,99.8 267.9,76.7 268,2.7 					"/>
				</g>
			</g>
		</g>
		<g>
			<g>
				<defs>
					<polygon id="SVGID_7_" points="310.4,99.8 189,116.9 146.5,93.8 267.9,76.7 					"/>
				</defs>
				<clipPath id="SVGID_8_">
					<use xlink:href="#SVGID_7_"  style="overflow:visible;"/>
				</clipPath>
				<g class="st5">
					<polygon class="st2" points="310.4,99.8 189,116.9 146.5,93.8 267.9,76.7 					"/>
				</g>
			</g>
		</g>
		<g>
			<g>
				<defs>
					<polygon id="SVGID_9_" points="189,116.9 146.5,93.8 146.6,19.7 189.1,42.8 					"/>
				</defs>
				<clipPath id="SVGID_10_">
					<use xlink:href="#SVGID_9_"  style="overflow:visible;"/>
				</clipPath>
				<g class="st6">
					<polygon class="st2" points="189,116.9 146.5,93.8 146.6,19.7 189.1,42.8 					"/>
				</g>
			</g>
		</g>
		<g>
			<g>
				<defs>
					<polygon id="SVGID_11_" points="189.1,42.8 146.6,19.7 268,2.6 310.5,25.8 					"/>
				</defs>
				<clipPath id="SVGID_12_">
					<use xlink:href="#SVGID_11_"  style="overflow:visible;"/>
				</clipPath>
				<g class="st7">
					<polygon class="st2" points="189.1,42.8 146.6,19.7 268,2.7 310.5,25.8 					"/>
				</g>
			</g>
		</g>
		<g>
			<g>
				<defs>
					<path id="SVGID_13_" d="M146.5,19.6L268.2,2.5L268,76.8L146.3,93.9L146.5,19.6z M267.9,76.7l0.1-74l-121.4,17l-0.1,74
						L267.9,76.7"/>
				</defs>
				<clipPath id="SVGID_14_">
					<use xlink:href="#SVGID_13_"  style="overflow:visible;"/>
				</clipPath>
				<g class="st8">
					<path class="st2" d="M146.5,19.6L268.2,2.5L268,76.8L146.3,93.9L146.5,19.6z M267.9,76.7l0.1-74l-121.4,17l-0.1,74L267.9,76.7"
						/>
				</g>
			</g>
		</g>
		<g>
			<g>
				<defs>
					<path id="SVGID_15_" d="M189,42.7l121.7-17.1l-0.1,74.3L188.8,117L189,42.7z M310.4,99.8l0.1-74L189.1,42.8l-0.1,74L310.4,99.8
						"/>
				</defs>
				<clipPath id="SVGID_16_">
					<use xlink:href="#SVGID_15_"  style="overflow:visible;"/>
				</clipPath>
				<g class="st9">
					<path class="st2" d="M189,42.7l121.7-17.1l-0.1,74.3L188.8,117L189,42.7z M310.4,99.8l0.1-74L189.1,42.8l-0.1,74L310.4,99.8"/>
				</g>
			</g>
		</g>
		<g>
			<g>
				<defs>
					<polygon id="SVGID_17_" points="189,42.7 146.5,19.6 268.2,2.5 310.7,25.6 					"/>
				</defs>
				<clipPath id="SVGID_18_">
					<use xlink:href="#SVGID_17_"  style="overflow:visible;"/>
				</clipPath>
				<g class="st10">
					<polygon class="st2" points="189,42.7 146.5,19.6 268.2,2.5 310.7,25.6 					"/>
				</g>
			</g>
		</g>
		<g>
			<g>
				<defs>
					<polygon id="SVGID_19_" points="310.7,25.6 310.5,99.9 268,76.8 268.2,2.5 					"/>
				</defs>
				<clipPath id="SVGID_20_">
					<use xlink:href="#SVGID_19_"  style="overflow:visible;"/>
				</clipPath>
				<g class="st11">
					<polygon class="st2" points="310.7,25.6 310.5,99.9 268,76.8 268.2,2.5 					"/>
				</g>
			</g>
		</g>
		<g>
			<g>
				<defs>
					<polygon id="SVGID_21_" points="310.5,99.9 188.8,117.1 146.3,93.9 268,76.8 					"/>
				</defs>
				<clipPath id="SVGID_22_">
					<use xlink:href="#SVGID_21_"  style="overflow:visible;"/>
				</clipPath>
				<g class="st12">
					<polygon class="st2" points="310.5,99.9 188.8,117.1 146.3,93.9 268,76.8 					"/>
				</g>
			</g>
		</g>
		<g>
			<g>
				<defs>
					<polygon id="SVGID_23_" points="188.8,117.1 146.3,93.9 146.5,19.6 189,42.7 					"/>
				</defs>
				<clipPath id="SVGID_24_">
					<use xlink:href="#SVGID_23_"  style="overflow:visible;"/>
				</clipPath>
				<g class="st13">
					<polygon class="st2" points="188.8,117.1 146.3,93.9 146.5,19.6 189,42.7 					"/>
				</g>
			</g>
		</g>
		<g>
			<g>
				<defs>
					<polygon id="SVGID_25_" points="310.4,99.8 267.9,76.7 268,2.6 310.5,25.8 					"/>
				</defs>
				<clipPath id="SVGID_26_">
					<use xlink:href="#SVGID_25_"  style="overflow:visible;"/>
				</clipPath>
				<g class="st14">
					<polygon class="st2" points="310.4,99.8 267.9,76.7 268,2.7 310.5,25.8 					"/>
				</g>
			</g>
		</g>
		<g>
			<g>
				<defs>
					<polygon id="SVGID_27_" points="310.5,25.8 189.1,42.8 146.6,19.7 268,2.6 					"/>
				</defs>
				<clipPath id="SVGID_28_">
					<use xlink:href="#SVGID_27_"  style="overflow:visible;"/>
				</clipPath>
				<g class="st15">
					<polygon class="st2" points="310.5,25.8 189.1,42.8 146.6,19.7 268,2.7 					"/>
				</g>
			</g>
		</g>
		<g>
			<g>
				<defs>
					<polygon id="SVGID_29_" points="189.1,42.8 189,116.9 146.5,93.8 146.6,19.7 					"/>
				</defs>
				<clipPath id="SVGID_30_">
					<use xlink:href="#SVGID_29_"  style="overflow:visible;"/>
				</clipPath>
				<g class="st16">
					<polygon class="st2" points="189.1,42.8 189,116.9 146.5,93.8 146.6,19.7 					"/>
				</g>
			</g>
		</g>
		<g>
			<g>
				<defs>
					<polygon id="SVGID_31_" points="189,116.9 146.5,93.8 267.9,76.7 310.4,99.8 					"/>
				</defs>
				<clipPath id="SVGID_32_">
					<use xlink:href="#SVGID_31_"  style="overflow:visible;"/>
				</clipPath>
				<g class="st17">
					<polygon class="st2" points="189,116.9 146.5,93.8 267.9,76.7 310.4,99.8 					"/>
				</g>
			</g>
		</g>
	</g>
</g>
<g id="water" class="st18">
	<g>
		<polygon class="st19" points="310.7,27.7 310.5,100 188.8,117.1 189,44.8 		"/>
		<polygon class="st20" points="188.8,117.1 146.3,94 146.5,21.7 189,44.8 		"/>
		<polygon class="st21" points="189,44.8 146.5,21.7 268.2,4.6 310.7,27.7 		"/>
	</g>
</g>
<g id="plant3">
	<path class="st22" d="M272.2,93.2c0,0-18.8-16.4-22.9-46.3"/>
	
		<ellipse transform="matrix(6.981287e-03 -1 1 6.981287e-03 205.5211 292.6408)" class="st23" cx="250.1" cy="42.8" rx="6.5" ry="2"/>
	<path class="st23" d="M250.1,51.7c0,0,3.9-6.7,10.8-8.2C262.5,43.2,254.5,54.6,250.1,51.7z"/>
	<path class="st23" d="M250,51c0,0-8.1-7.9-11.2-5.4c-1.1,0.9,11.6,10.6,11.3,6.1S250,51,250,51z"/>
	<path class="st23" d="M251,55.9c0,0,6.4-7.2,12.5-5.1C265,51.3,254.7,59.4,251,55.9z"/>
	<path class="st23" d="M252.9,61.4c0,0,4.8-7.6,11.5-6.6c1.3,0.2-2.4,4.2-4.7,5.3S253.8,63.2,252.9,61.4z"/>
	<path class="st23" d="M252.4,61.6c0,0-7.2-6.5-12.8-2.4c-1.1,0.8,4.5,3.5,8.3,3.6S252.1,62.7,252.4,61.6z"/>
	<path class="st23" d="M255.1,67.2c0,0,0.9-4,8.4-6.9c2.1-0.8,4.6-0.7,1.1,3.2S254.9,68.7,255.1,67.2z"/>
	<path class="st23" d="M254.6,66.7c0,0-8.5-3.9-12.6-0.8c-1.3,1,3.2,2.7,3.2,2.7s8.5,1.6,9.6-0.4S254.6,66.7,254.6,66.7z"/>
	<path class="st23" d="M251.3,54.8"/>
	<path class="st23" d="M251,55.9c0,0-1.8-3.9-12.1-3.5c-2.8,0.1,2.2,3,2.2,3s5.5,2.8,8,1.9S251,55.9,251,55.9z"/>
	<path class="st23" d="M258,74c0,0,0.3-6.4,7.6-10.2c2.1-1.1,0.3,3.6-1.2,5.4S261.3,73.9,258,74z"/>
	<path class="st23" d="M257.6,73.4c0,0-5.8-3-9.6-2.1s-5.1,1.6-1.5,3.1c2.7,1.1,5.7,1.6,8.6,1.3c0.8-0.2,2.7-0.3,3-1.6
		S257.6,73.4,257.6,73.4z"/>
	<path class="st23" d="M261.6,80.2c0,0,0.6-7.4,4.8-10.5s0.7,5.1,0.7,5.1S263.5,82.5,261.6,80.2z"/>
	<path class="st23" d="M261.2,79.7c0,0-6.6-1.6-8.7-1.6s-7.3,1.2-1.4,3.2s10.3,0.3,10.7,0.1S261.2,79.7,261.2,79.7z"/>
	<path class="st23" d="M265.8,86.2c0,0,0.5-6.2,2-9s3.6-4.9,3.3,0.5s-3.3,8.8-4.4,9S265.8,86.2,265.8,86.2z"/>
	<path class="st23" d="M265.8,86.2c0,0-8.2-2.2-10.4-1.8s-4.3,2,0.7,3.5s9.8,0.6,10.2-1.1S265.8,86.2,265.8,86.2z"/>
</g>
<g id="lid">
	<g>
		<polygon class="st24" points="268.2,10.6 146.2,26.4 146.3,17.4 268.4,1.6 		"/>
		<polygon class="st25" points="311,31.4 268.2,10.6 268.4,1.6 311.2,22.4 		"/>
		<polygon class="st24" points="189,47.2 189.1,38.2 311.2,22.4 311,31.4 		"/>
		<polygon class="st25" points="146.2,26.4 146.3,17.4 189.1,38.2 189,47.2 		"/>
	</g>
</g>
<g id="plant">
	<path class="st26" d="M284.7,95.1c0,0,13.9-18.1,12.1-45.7"/>
	<ellipse transform="matrix(0.9787 -0.2052 0.2052 0.9787 -3.1316 61.5731)" class="st27" cx="295.3" cy="45.9" rx="1.8" ry="6"/>
	<path class="st27" d="M297,54c0,0-4.7-5.3-11.1-5.4C284.4,48.6,293.6,57.3,297,54z"/>
	<path class="st27" d="M297,53.3c0,0,5.9-8.6,9-6.9c1.1,0.6-8.5,11.6-9,7.6S297,53.3,297,53.3z"/>
	<path class="st27" d="M296.9,57.9c0,0-7-5.3-12.2-2.3C283.6,56.3,294.2,61.7,296.9,57.9z"/>
	<path class="st27" d="M296.2,63.1c0,0-5.7-5.9-11.5-3.9c-1.1,0.4,2.9,3.3,5.2,3.9S295.8,65,296.2,63.1z"/>
	<path class="st27" d="M296.7,63.2c0,0,5.3-7.1,11.1-4.4c1.1,0.5-3.4,4-6.8,4.7S297.2,64.2,296.7,63.2z"/>
	<path class="st27" d="M295.3,68.8c0,0-1.5-3.4-8.8-4.7c-2-0.4-4.3,0.2-0.4,3.1S295.7,70,295.3,68.8z"/>
	<path class="st27" d="M295.7,68.2c0,0,6.9-5,11.1-3c1.4,0.6-2.4,3-2.4,3s-7.3,3-8.7,1.4S295.7,68.2,295.7,68.2z"/>
	<path class="st28" d="M296.5,57"/>
	<path class="st27" d="M296.9,57.9c0,0,0.9-3.9,10.2-5.4c2.5-0.4-1.4,3.1-1.4,3.1s-4.4,3.5-6.9,3.1S296.9,57.9,296.9,57.9z"/>
	<path class="st27" d="M294,75.4c0,0-1.4-5.7-8.7-7.7c-2.1-0.6,0.4,3.3,2.1,4.6S291,75.9,294,75.4z"/>
	<path class="st27" d="M294.2,74.7c0,0,4.6-3.7,8.2-3.7s4.8,0.5,2,2.5c-2.2,1.5-4.8,2.4-7.5,2.8c-0.8,0-2.5,0.2-2.9-0.9
		S294.2,74.7,294.2,74.7z"/>
	<path class="st27" d="M291.9,81.6c0,0-1.9-6.5-6.2-8.6s0.3,4.7,0.3,4.7S290.5,84,291.9,81.6z"/>
	<path class="st27" d="M292,81.1c0,0,5.6-2.7,7.5-3s6.8-0.3,1.8,2.6s-9.2,2.2-9.6,2S292,81.1,292,81.1z"/>
	<path class="st27" d="M289.2,87.7c0,0-1.6-5.4-3.5-7.7s-4.1-3.7-2.8,1.1s4.5,7.3,5.6,7.3S289.2,87.7,289.2,87.7z"/>
	<path class="st27" d="M289.2,87.7c0,0,6.9-3.5,9-3.5s4.2,1,0,3.3s-8.6,2.4-9.3,0.9S289.2,87.7,289.2,87.7z"/>
</g>
<path class="st29" d="M227.4,98.4"/>
<circle class="st30" cx="210.4" cy="95.2" r="0.2"/>
<path class="st31" d="M237,94.7"/>
<path class="st32" d="M273.3,94.9l-0.2,0.1l0,0L273.3,94.9L273.3,94.9"/>
<path class="st33" d="M256.2,83.4c-0.1,0.1-0.2,0.2-0.4,0.2c0.2,0,0.2,0,0.2-0.1C256.2,83.5,256.2,83.5,256.2,83.4 M262.5,87.8
	l-3.6-2.1l-1.8-2.2L262.5,87.8 M257.3,83l-0.1,0.2c-0.1,0.3-0.3,0.6-0.5,0.8c-0.2,0.2-0.4,0.3-0.7,0.4l0,0c-0.2,0-0.4,0-0.6,0h-0.9
	c-0.5,0-0.8,0.1-0.8,0s0.5-0.3,0.7-0.4l0.5-0.2l0.2-0.1c-0.2,0-0.6,0-1.1,0.1c-0.8,0-1.2,0.1-1.5,0.1l-0.4,0.1
	c-0.1,0-0.3,0.1-0.4,0.2l0.3,0.2c0.3,0.2,0.6,0.4,0.8,0.6c0.5,0.4,0.5,0.4,0.7,0.5c0.4,0.3,0.5,0.2,1.1,0.6c0.2,0.1,0.4,0.3,0.8,0.5
	c0.7,0.5,0.6,0.4,0.8,0.6c0.5,0.3,1.1,0.5,1.7,0.6l0.9,0.4c0.3,0.2,0.7,0.3,1.1,0.4h0.2c0.5-0.1,0.9-0.3,1.4-0.5
	c1.1-0.5,1.2-0.6,1.3-0.8s0-0.5,0.1-1c0-0.3,0.2-0.6,0.4-0.8l-2.7-0.8L257.3,83 M265.2,76.4L265.2,76.4l-4.2,1.3l-3.5,0.6
	L265.2,76.4 M264.7,73.9l-4.5,2.5l-3,0.8l0.2,0.7c0.1,0.4,0.2,0.9,0.3,1.3l7.6-0.4l-5.4,0.7l-2.2-0.3l0,0c0,0.5,0,0.6,0,1.5v0.3
	l7.3,0.5l-5.7,0.1l-1.6-0.6v0.3c0,0.4,0,0.7-0.1,1.1l6.6,1.8l-3.8-0.7l-2.8-1.1l0,0c0,0.2-0.1,0.4-0.2,0.5l6,2.6
	c0.2-0.3,0.4-0.5,0.5-0.8c0.3-0.8,0.5-1.6,0.7-2.4c0.2-0.5,0.3-0.8,0.4-1.3c0.1-0.4,0.2-0.8,0.2-1.2c0.1-0.5,0.1-1,0.1-1.5
	c0-0.7,0-1.3-0.1-2c-0.1-0.6-0.2-1-0.2-1.4S264.8,74.3,264.7,73.9 M263.8,71.9L263.8,71.9l-3.4,2.8l-3.5,1.8L263.8,71.9 M262.4,69.3
	c-1.7,2.3-3.6,4.5-5.7,6.5c0.1,0.3,0.2,0.6,0.2,0.6s0.1,0.4,0.2,0.9l7.5-3.4c0-0.1,0-0.2-0.1-0.2c-0.1-0.4-0.2-0.7-0.4-1
	c-0.2-0.3-0.4-0.3-0.5-0.6s0.1-0.4,0.1-0.7c-0.1-0.2-0.1-0.4-0.3-0.6c-0.2-0.2-0.3-0.4-0.5-0.6C262.8,69.9,262.6,69.6,262.4,69.3
	 M260.9,67.8L260.9,67.8l-3.3,4.6l-2,2.3l5.2-6.9 M259.4,67.6c-0.5,0.1-1,0.3-1.4,0.7c-0.3,0.2-0.2,0.2-0.8,0.9s-0.6,0.6-1.1,1.1
	c-0.6,0.7-0.5,0.8-1,1.2s-0.6,0.4-1.1,1s-0.4,0.5-0.9,1s-0.5,0.4-1,0.9s-0.5,0.5-0.8,0.8s-0.8,0.5-0.8,0.6s0,0,0.1,0.1l0,0
	c0.2,0,0.3-0.1,0.5-0.1c0.3-0.1,0.9-0.4,0.9-0.4c0.2,0.1,0.5,0.2,0.7,0.1l0,0c0.4-0.1,0.5-0.3,0.7-0.4h0.1c0.3,0,0.3,0.3,0.7,0.4
	h0.2c0.1,0,0.2,0,0.2-0.1c0.1,0,0.2-0.1,0.2-0.1h0.2c-0.3-0.4-0.8-0.6-1.3-0.6h0.2c0.2,0,0.3,0,0.5,0c0.1,0,0.2,0,0.5,0l0.5,0.1h0.1
	c0.3,0.1,0.7,0.6,0.9,1l5.7-6.5l-0.1-0.1c0-0.2-0.1-0.4-0.2-0.6c-0.1-0.2-0.3-0.4-0.5-0.5c-0.3-0.2-0.6-0.3-1-0.3
	c-0.3-0.1-0.5-0.1-0.8-0.1L259.4,67.6"/>
<path class="st34" d="M254.1,74.6h-0.2c0.5,0,1,0.3,1.3,0.6l0,0c0.3,0.1,0.5,0.3,0.7,0.5c0.2,0.3,0.4,0.6,0.5,1
	c0.2,0.7,0.5,1.4,0.6,2.2c0,0.6,0,1.2,0,1.8c0,0.1,0,0.6-0.1,1.2c0,0.3-0.1,0.6-0.2,0.8c-0.1,0.3-0.3,0.5-0.5,0.6
	c0,0.1-0.1,0.1-0.1,0.2c0,0-0.1,0-0.2,0.1l0,0c-0.1,0.1-0.2,0.1-0.4,0.1h-0.2l-0.2,0.1l-0.5,0.2c-0.3,0.1-0.7,0.3-0.7,0.4
	s0.2,0,0.8,0h0.9c0.2,0,0.4,0,0.6,0l0,0c0.3-0.1,0.5-0.2,0.7-0.4c0.2-0.2,0.4-0.5,0.5-0.8l0.1-0.2l0,0c0.1-0.2,0.1-0.3,0.2-0.5l0,0
	c0.1-0.4,0.1-0.7,0.1-1.1v-0.3l0,0v-0.2c0-0.9,0.1-1,0-1.5l0,0c-0.1-0.4-0.2-0.9-0.3-1.3l-0.2-0.7l0,0c-0.1-0.5-0.2-0.8-0.2-0.9
	s-0.1-0.3-0.2-0.6l0,0c-0.2-0.4-0.5-1-0.9-1h-0.1l-0.5-0.1c-0.2,0-0.4,0-0.5,0C254.3,74.6,254.2,74.6,254.1,74.6"/>
<path class="st35" d="M207.9,85.5c-0.8,0.1-1.6-0.4-1.8-1.2c-0.1-0.8,0.4-1.6,1.2-1.8c0.8-0.1,1.6,0.4,1.8,1.2
	C209.2,84.6,208.7,85.3,207.9,85.5 M220.2,77l-0.7,0.1c-1.2,0.3-1.1,0.4-2.3,0.7l-0.6,0.1l-0.5,0.1l-0.7,0.1l-0.6,0.1
	c-0.7,0.1-1.3,0.3-2,0.5c-1.1,0.3-1,0.4-2,0.7c-0.6,0.2-1.4,0.3-2.9,0.6c-0.1,0-0.5,0.1-1.2,0.3c-0.3,0.1-0.7,0.1-1,0.3
	c-0.3,0.1-0.5,0.3-0.7,0.4l-0.4,0.1l-0.2,0c0,0.1-0.3,0.2-0.5,0.2s-0.5,0.1-0.6,0.2s0,0.2,0.2,0.6s0.2,0.7,0.2,0.7l-0.7,0.3l0.5,1.1
	l0.6,0.6c0.3,0.2,0.7,0.5,1,0.7c0.7,0.5,0.6,0.5,1.1,0.8c0.3,0.2,0.6,0.4,1.1,0.7c0.8,0.5,1.2,0.8,1.5,0.9s0.2,0.1,1.4,0.5
	c0.7,0.3,0.8,0.3,1.1,0.4c0.4,0.2,0.9,0.3,1.3,0.3c0.1,0,0.2,0,0.3,0h0.1h0.1c0.1,0,0.3,0,0.4,0c0.3,0.1,0.3,0.3,0.6,0.6
	s0.3,0.3,1.3,0.7c0.6,0.3,1.2,0.5,1.9,0.6c0.6,0.1,1.2,0.2,1.8,0.2c0.3,0,0.6,0,0.9,0c-0.2,0-0.3-0.1-0.5-0.2
	c-0.5-0.2-0.9-0.4-1.3-0.7c-1-0.6-1-0.5-1.4-0.7c-0.6-0.4-1-1.1-1.7-2.6c-0.6-1.2-0.6-1.5-0.6-1.7c0.2-0.6,0.6-1.1,1.1-1.4
	c0.3-0.1,0.7-0.3,1-0.3c0.3-0.1,0.6-0.1,0.9-0.2c0.5-0.1,0.9-0.1,0.9-0.1c0.2,0,0.3,0,0.5-0.1h0.2c0.2-0.1,0.5-0.1,0.7-0.2
	c0.2-0.1,0.4-0.1,0.6-0.1l0.6-0.1c0.6-0.1,1.1-0.1,1.7,0c0.8,0.1,1.6,0.3,2.3,0.6c0.7,0.3,1.3,0.7,1.9,1.3c0.4,0.3,0.7,0.7,1,1.2
	c0.2,0.7,0.2,1.4,0,2.1c-0.1,0.4-0.2,0.8-0.5,1.2c-0.4,0.3-0.8,0.6-1.3,0.8c-0.4,0.2-0.8,0.4-1.4,0.6c-0.6,0.3-1.2,0.5-1.9,0.6l0,0
	c-0.2,0-0.5,0.1-0.8,0.1c0.4,0.1,0.9,0.1,1.3,0.1c0.9,0,1.8-0.2,2.6-0.3h0.3l0.4-0.1l0.3,0l0.4-0.1c1-0.1,1.2-0.1,1.6-0.2l0.2-0.2
	c0.8-0.2,0.7-0.4,1.6-0.6l0.4-0.1l0.4-0.1h0.3c0.2,0,0.4-0.1,0.5-0.2c0.4-0.2,0.8-0.4,1.1-0.7c0.2-0.2,0.2-0.2,0.8-0.7
	s0.7-0.7,0.9-0.8c0,0,0,0-0.1,0c0-0.2,0.9-0.5,1.5-1.1l0.3-0.3c0.2-0.2,0.5-0.3,0.7-0.4c0.3-0.1,0.7-0.2,1-0.3h0.1
	c0.3,0,0.6,0,0.9,0c0.3,0,0.7,0,1.2-0.1l0,0c0.5-0.1,1.1-0.2,1.6-0.1c0.2,0,0.4,0,0.6-0.1h0.1c0.5-0.1,0.8-0.2,1.1-0.2l0.3-0.1
	c0.4-0.1,1-0.1,1.9-0.2c1.4-0.1,2-0.2,2.3-0.1c0.7,0.2,1.4,0.2,2.2,0.2l0.3-0.1c0.1,0,0.3-0.1,0.4-0.2c0.1-0.1,0.3-0.1,0.4-0.2
	l0.4-0.1c0.3,0,0.7-0.1,1.5-0.1c0.5,0,0.9-0.1,1.1-0.1h0.2c0.1,0,0.3-0.1,0.4-0.1l0,0c0.1-0.1,0.3-0.1,0.4-0.2
	c0.2-0.2,0.4-0.4,0.5-0.6c0.1-0.3,0.2-0.5,0.2-0.8c0.1-0.6,0.1-1.1,0.1-1.2c0-0.6,0-1.2,0-1.8c-0.2-0.7-0.4-1.5-0.6-2.2
	c-0.1-0.3-0.2-0.7-0.5-1c-0.2-0.3-0.4-0.5-0.7-0.5H255c-0.1,0-0.2,0-0.2,0.1c-0.1,0-0.2,0.1-0.2,0.1h-0.2c-0.4-0.1-0.4-0.4-0.7-0.4
	h-0.1c-0.3,0-0.4,0.3-0.7,0.4l0,0c-0.2,0-0.5,0-0.7-0.1c0,0-0.6,0.3-0.9,0.4c-0.2,0.1-0.3,0.1-0.5,0.1l0,0c-0.2,0-0.5,0.1-0.8,0.1
	c-0.7,0.1-1.4,0.1-2.1,0c-0.5-0.1-0.4-0.1-0.8-0.1c-0.6,0-1.1,0-1.7,0.1h-0.5l-0.1,0.1l-0.2,0.1c-0.1,0-0.1,0.1-0.2,0.1
	c-0.1,0-0.2,0-0.3,0c-0.4,0-0.5,0.1-1.8,0.1c-0.1,0-0.5,0-1.1,0c-1.1-0.1-2.2-0.2-3.2-0.5c-1.6-0.3-2.2-0.6-2.8-0.6
	c-0.3,0-0.7-0.1-1-0.2l-0.2-0.1l0.4-0.2c-0.3,0-0.5,0-0.8,0h-0.2c-0.3,0-0.5,0.1-0.8,0.2c-0.2,0-0.3,0.1-0.6,0.1l-1.3,0.2l-2.8,0.4
	c-0.9,0.1-1.6,0.2-2.5,0.4h-0.1c-1.4,0.2-1.3,0.3-2.5,0.5C221.2,77,220.8,77,220.2,77"/>
<path class="st36" d="M239.1,73.3l-0.3,0.1c-0.3,0.1-0.7,0.2-1,0.4c-0.1,0.1-0.2,0.1-1.5,0.5c-0.6,0.2-0.7,0.2-0.9,0.3
	c-0.3,0.1-0.6,0.2-0.9,0.4h-0.1L234,75l0.2,0.1c0.3,0.1,0.7,0.2,1,0.2c0.6,0.1,1.2,0.3,2.8,0.6c1.1,0.2,2.1,0.4,3.2,0.5
	c0.5,0,0.9,0,1.1,0c1.3,0,1.3-0.2,1.8-0.1c0.1,0,0.2,0,0.3,0c0.1,0,0.1,0,0.2-0.1l0.2-0.1l0.1-0.1l0.3-0.2c0.1-0.2,0-0.4-0.1-0.8
	c-0.1-0.2-0.2-0.4-0.3-0.6c-0.3-0.2-0.5-0.3-0.8-0.3c-0.5-0.1-0.4-0.1-0.7-0.1c-0.4-0.1-0.7-0.3-1.1-0.4c-0.2-0.1-0.5-0.2-0.8-0.3
	c-0.2-0.1-0.5-0.1-0.8-0.2c-0.3,0-0.5,0-0.8,0.1L239.1,73.3"/>
<path class="st37" d="M220.6,83c-0.2,0-0.4,0.1-0.6,0.1c-0.2,0.1-0.5,0.2-0.7,0.2h-0.2c-0.2,0-0.3,0.1-0.5,0.1c0,0-0.4,0-0.9,0.1
	c-0.3,0-0.6,0.1-0.9,0.2c-0.4,0.1-0.7,0.2-1,0.3c-0.5,0.3-0.9,0.8-1.1,1.4c0,0.2,0,0.5,0.6,1.7c0.7,1.4,1,2.1,1.7,2.6
	c0.4,0.3,0.4,0.2,1.4,0.7c0.4,0.3,0.9,0.5,1.3,0.7c0.2,0.1,0.3,0.1,0.5,0.2c0.2,0.1,0.4,0.1,0.6,0.1c0.4,0,0.7,0,1.1,0h0.2
	c0.4,0,0.6-0.1,0.8-0.1l0,0c0.6-0.1,1.3-0.3,1.9-0.6c0.6-0.2,1.1-0.5,1.4-0.6c0.5-0.2,0.9-0.5,1.3-0.8c0.3-0.4,0.4-0.8,0.5-1.2
	c0.2-0.7,0.2-1.4,0-2.1c-0.2-0.5-0.5-0.9-1-1.2c-0.5-0.5-1.2-0.9-1.9-1.3c-0.7-0.3-1.5-0.5-2.3-0.6c-0.6-0.1-1.1-0.1-1.7,0L220.6,83
	"/>
<path class="st38" d="M207.7,84.8c-0.4,0.1-0.8-0.1-0.9-0.6c-0.1-0.4,0.1-0.8,0.6-0.9c0.4-0.1,0.8,0.1,0.9,0.6c0,0,0,0,0,0
	C208.3,84.4,208.1,84.8,207.7,84.8C207.7,84.8,207.7,84.8,207.7,84.8 M207.3,82.5c-0.8,0.1-1.4,0.9-1.2,1.8c0.1,0.8,0.9,1.4,1.8,1.2
	c0.8-0.1,1.4-0.9,1.2-1.8c0,0,0,0,0,0C208.9,82.9,208.2,82.4,207.3,82.5"/>
<path class="st39" d="M207.4,83.4c-0.4,0-0.7,0.4-0.7,0.8s0.4,0.7,0.8,0.7c0.4,0,0.7-0.4,0.7-0.8c0,0,0,0,0,0
	C208.2,83.6,207.8,83.3,207.4,83.4C207.4,83.4,207.4,83.4,207.4,83.4"/>
<path class="st36" d="M238.8,85.3c-0.3,0.1-0.7,0.2-1,0.3c-0.3,0.1-0.5,0.3-0.7,0.4l-0.3,0.3c-0.7,0.7-1.6,1-1.5,1.1c0,0,0,0,0.1,0
	c0.1,0,0.2,0,0.5,0.1c0.4,0.1,0.5,0.2,1,0.3l0.8,0.1c1,0.2,1,0.2,1.1,0.2c0.6,0,1.2,0,1.8,0c0.6,0,0.5,0.1,1.4,0.1
	c0.6,0,1.1,0,1.7,0c0.1,0,0.1,0,0.2,0c0.2,0,0.4-0.1,0.6-0.2c0.1-0.1,0.2-0.2,0.3-0.3c0-0.2,0-0.4-0.1-0.5c-0.1-0.3-0.1-0.3-0.3-0.6
	c0-0.1-0.1-0.3-0.2-0.4c-0.1-0.2-0.3-0.3-0.6-0.5s-0.3-0.5-0.5-0.6c-0.1,0-0.1-0.1-0.2-0.1h-0.1c-0.6,0-1.1,0-1.6,0.1l0,0
	c-0.5,0-0.9,0.1-1.2,0.1c-0.3,0-0.6,0-0.9,0L238.8,85.3"/>
<path class="st28" d="M262.3,69.3L262.3,69.3l-5.7,6.5l0,0C258.7,73.8,260.6,71.6,262.3,69.3L262.3,69.3"/>
<polyline class="st28" points="264.7,73.8 264.6,73.9 257.1,77.2 257.1,77.2 257.1,77.2 260.1,76.4 264.6,73.9 264.7,73.8 "/>
<polyline class="st28" points="257.6,79.2 257.6,79.2 259.8,79.6 265.2,78.9 257.6,79.2 "/>
<polyline class="st28" points="257.5,81 257.5,81 259.1,81.6 264.8,81.5 257.5,81 257.5,81 "/>
<polyline class="st28" points="257.5,82.4 257.5,82.4 260.3,83.5 264.1,84.2 257.5,82.4 "/>
<polyline class="st28" points="263.7,71.8 256.8,76.3 260.3,74.6 263.7,71.8 "/>
<polyline class="st28" points="260.8,67.8 255.6,74.7 257.5,72.4 260.8,67.8 "/>
<polyline class="st28" points="265.1,76.3 257.4,78.2 260.9,77.7 265.1,76.3 "/>
<path class="st40" d="M116.2,104.3L116.2,104.3c-13.5,0-24.5-11-24.5-24.5v-1.6c0-13.5,11-24.5,24.5-24.5h0c2.7,0,5,2.2,5,5v40.7
	C121.2,102.1,119,104.3,116.2,104.3z"/>
<g class="st41">
	
		<image style="overflow:visible;" width="123" height="151" xlink:href="4B906C7A8D2CB95F.png"  transform="matrix(1 0 0 1 76.8 4.06)">
	</image>
	<g>
		<polygon class="st42" points="120.4,58.2 153.9,47.9 155.2,110.7 120.4,98.9 		"/>
	</g>
</g>
</svg>
